<?xml version="1.0" encoding="UTF-8" standalone="no"?>
<svg
   width="1000"
   height="500"
   viewBox="0 0 1000 500"
   fill="#ffffff"
   version="1.1"
   id="svg308"
   sodipodi:docname="Logo_white_transparent.svg"
   inkscape:version="1.2.1 (9c6d41e410, 2022-07-14)"
   xmlns:inkscape="http://www.inkscape.org/namespaces/inkscape"
   xmlns:sodipodi="http://sodipodi.sourceforge.net/DTD/sodipodi-0.dtd"
   xmlns="http://www.w3.org/2000/svg"
   xmlns:svg="http://www.w3.org/2000/svg">
  <defs
     id="defs312" />
  <sodipodi:namedview
     id="namedview310"
     pagecolor="#ffffff"
     bordercolor="#000000"
     borderopacity="0.25"
     inkscape:showpageshadow="2"
     inkscape:pageopacity="0.0"
     inkscape:pagecheckerboard="0"
     inkscape:deskcolor="#d1d1d1"
     showgrid="false"
     inkscape:zoom="0.3311835"
     inkscape:cx="1076.4425"
     inkscape:cy="1702.9834"
     inkscape:window-width="3840"
     inkscape:window-height="2066"
     inkscape:window-x="-11"
     inkscape:window-y="-11"
     inkscape:window-maximized="1"
     inkscape:current-layer="svg308" />
  <path
     d="m 528.08046,364.44292 c -2.06,0 -4.04,-0.22 -5.94,-0.66 -1.91,-0.4 -3.6,-1.06 -5.06,-1.98 -1.47,-0.95 -2.63,-2.15 -3.47,-3.58 -0.84,-1.46 -1.26,-3.2 -1.26,-5.22 0,-0.22 0,-0.42 0,-0.61 0.03,-0.22 0.05,-0.4 0.05,-0.55 h 6.16 c 0,0.11 -0.02,0.28 -0.05,0.5 0,0.22 0,0.4 0,0.55 0,1.36 0.4,2.51 1.21,3.46 0.8,0.96 1.92,1.67 3.35,2.15 1.47,0.48 3.14,0.71 5.01,0.71 1.02,0 2.01,-0.05 2.97,-0.16 0.95,-0.15 1.81,-0.35 2.58,-0.61 0.81,-0.29 1.5,-0.64 2.09,-1.04 0.59,-0.44 1.05,-0.95 1.38,-1.54 0.33,-0.59 0.49,-1.27 0.49,-2.04 0,-1.17 -0.35,-2.14 -1.04,-2.91 -0.66,-0.77 -1.58,-1.41 -2.75,-1.93 -1.14,-0.51 -2.44,-0.97 -3.91,-1.37 -1.43,-0.4 -2.91,-0.81 -4.45,-1.21 -1.54,-0.4 -3.05,-0.88 -4.51,-1.43 -1.43,-0.55 -2.74,-1.21 -3.91,-1.98 -1.14,-0.81 -2.05,-1.8 -2.75,-2.97 -0.66,-1.21 -0.99,-2.68 -0.99,-4.4 0,-1.65 0.35,-3.12 1.05,-4.4 0.69,-1.28 1.7,-2.35 3.02,-3.19 1.32,-0.88 2.9,-1.54 4.73,-1.98 1.83,-0.44 3.91,-0.66 6.22,-0.66 1.98,0 3.85,0.22 5.61,0.66 1.76,0.4 3.3,1.04 4.62,1.92 1.32,0.88 2.34,2 3.08,3.36 0.77,1.36 1.15,2.97 1.15,4.84 v 0.66 h -6.1 v -0.72 c 0,-1.17 -0.35,-2.16 -1.05,-2.97 -0.7,-0.8 -1.67,-1.43 -2.91,-1.87 -1.25,-0.44 -2.7,-0.66 -4.35,-0.66 -1.94,0 -3.57,0.21 -4.89,0.61 -1.32,0.37 -2.33,0.9 -3.03,1.59 -0.66,0.66 -0.99,1.47 -0.99,2.42 0,1.07 0.35,1.95 1.05,2.64 0.69,0.66 1.61,1.23 2.75,1.71 1.17,0.48 2.47,0.92 3.9,1.32 1.47,0.37 2.95,0.77 4.46,1.21 1.54,0.4 3.02,0.88 4.45,1.43 1.47,0.55 2.77,1.23 3.9,2.03 1.18,0.81 2.11,1.82 2.81,3.03 0.7,1.17 1.05,2.62 1.05,4.34 0,2.72 -0.68,4.94 -2.04,6.66 -1.36,1.69 -3.23,2.91 -5.61,3.68 -2.35,0.77 -5.04,1.16 -8.08,1.16 z m 34.31,9.35 c -1.1,0 -2.02,-0.09 -2.75,-0.27 -0.73,-0.15 -1.19,-0.24 -1.37,-0.28 v -4.12 h 2.75 c 0.8,0 1.61,-0.19 2.42,-0.55 0.84,-0.37 1.59,-0.96 2.25,-1.76 0.66,-0.81 1.21,-1.82 1.65,-3.03 l -11.27,-28.93 h 5.99 l 5.61,14.41 c 0.26,0.66 0.53,1.48 0.83,2.47 0.33,0.99 0.64,2 0.93,3.03 0.33,1.03 0.61,1.94 0.83,2.75 h 0.27 c 0.18,-0.55 0.37,-1.17 0.55,-1.87 0.22,-0.73 0.44,-1.49 0.66,-2.26 0.22,-0.77 0.44,-1.5 0.66,-2.2 0.22,-0.73 0.4,-1.35 0.55,-1.87 l 4.68,-14.46 h 5.83 l -9.79,27.83 c -0.55,1.54 -1.16,2.99 -1.82,4.35 -0.66,1.35 -1.43,2.53 -2.31,3.52 -0.84,1.02 -1.85,1.81 -3.02,2.36 -1.18,0.59 -2.55,0.88 -4.13,0.88 z m 44.97,-9.35 c -2.02,0 -3.79,-0.22 -5.33,-0.66 -1.54,-0.44 -2.83,-1.05 -3.85,-1.81 -1.03,-0.78 -1.82,-1.69 -2.37,-2.76 -0.51,-1.1 -0.77,-2.31 -0.77,-3.63 0,-0.18 0,-0.34 0,-0.49 0.04,-0.15 0.06,-0.28 0.06,-0.39 h 5.66 c 0,0.11 0,0.22 0,0.33 0,0.08 0,0.17 0,0.28 0,1.14 0.31,2.05 0.94,2.75 0.62,0.66 1.44,1.14 2.47,1.43 1.06,0.26 2.22,0.38 3.47,0.38 1.1,0 2.1,-0.12 3.02,-0.38 0.95,-0.29 1.72,-0.72 2.31,-1.27 0.62,-0.55 0.94,-1.24 0.94,-2.09 0,-1.1 -0.39,-1.94 -1.16,-2.53 -0.77,-0.58 -1.78,-1.04 -3.02,-1.37 -1.25,-0.37 -2.55,-0.75 -3.91,-1.16 -1.21,-0.33 -2.42,-0.67 -3.63,-1.04 -1.17,-0.4 -2.24,-0.92 -3.19,-1.54 -0.95,-0.62 -1.72,-1.41 -2.31,-2.37 -0.59,-0.95 -0.88,-2.14 -0.88,-3.57 0,-1.36 0.29,-2.55 0.88,-3.58 0.59,-1.02 1.39,-1.88 2.42,-2.58 1.06,-0.7 2.31,-1.23 3.74,-1.6 1.47,-0.36 3.06,-0.55 4.79,-0.55 1.79,0 3.39,0.21 4.78,0.61 1.39,0.37 2.57,0.9 3.52,1.59 0.99,0.7 1.74,1.54 2.26,2.53 0.51,0.96 0.77,1.98 0.77,3.08 0,0.22 -0.02,0.46 -0.06,0.72 0,0.22 0,0.37 0,0.44 h -5.61 v -0.5 c 0,-0.73 -0.2,-1.39 -0.6,-1.98 -0.41,-0.58 -1.05,-1.06 -1.93,-1.43 -0.84,-0.36 -1.98,-0.55 -3.41,-0.55 -0.95,0 -1.8,0.1 -2.53,0.28 -0.73,0.15 -1.34,0.37 -1.81,0.66 -0.48,0.29 -0.85,0.64 -1.1,1.04 -0.22,0.41 -0.33,0.87 -0.33,1.38 0,0.84 0.29,1.5 0.88,1.98 0.62,0.44 1.43,0.82 2.42,1.15 0.99,0.3 2.05,0.63 3.19,0.99 1.32,0.37 2.65,0.76 4.01,1.16 1.36,0.37 2.6,0.84 3.74,1.43 1.17,0.59 2.11,1.39 2.81,2.42 0.73,1.03 1.1,2.4 1.1,4.12 0,1.58 -0.32,2.96 -0.94,4.13 -0.62,1.17 -1.5,2.13 -2.64,2.86 -1.1,0.7 -2.4,1.21 -3.9,1.54 -1.51,0.37 -3.14,0.55 -4.9,0.55 z m 34.45,0 c -1.65,0 -2.95,-0.31 -3.9,-0.94 -0.92,-0.66 -1.58,-1.48 -1.98,-2.47 -0.37,-1.03 -0.55,-2.11 -0.55,-3.25 v -18.2 h -3.63 v -4.73 h 3.74 l 1.04,-8.09 h 4.57 v 8.09 h 5.22 v 4.73 h -5.22 v 17.54 c 0,0.85 0.18,1.49 0.55,1.93 0.36,0.44 0.97,0.66 1.81,0.66 h 2.86 v 3.85 c -0.36,0.15 -0.82,0.28 -1.37,0.39 -0.52,0.14 -1.05,0.25 -1.6,0.33 -0.55,0.11 -1.06,0.16 -1.54,0.16 z m 30.62,0 c -2.97,0 -5.46,-0.53 -7.48,-1.6 -1.98,-1.1 -3.48,-2.76 -4.51,-5 -1.03,-2.24 -1.54,-5.08 -1.54,-8.53 0,-3.48 0.51,-6.32 1.54,-8.52 1.03,-2.24 2.55,-3.89 4.57,-4.95 2.01,-1.1 4.52,-1.65 7.53,-1.65 2.75,0 5.04,0.53 6.88,1.59 1.87,1.03 3.28,2.61 4.23,4.73 0.95,2.13 1.43,4.81 1.43,8.03 v 2.2 h -20.29 c 0.07,2.06 0.38,3.78 0.93,5.17 0.55,1.36 1.38,2.37 2.48,3.03 1.13,0.62 2.56,0.93 4.29,0.93 1.06,0 2.01,-0.12 2.86,-0.38 0.84,-0.29 1.55,-0.7 2.14,-1.21 0.59,-0.55 1.05,-1.19 1.38,-1.93 0.33,-0.77 0.49,-1.63 0.49,-2.58 h 5.61 c 0,1.72 -0.29,3.24 -0.88,4.56 -0.59,1.32 -1.45,2.44 -2.58,3.36 -1.1,0.88 -2.42,1.56 -3.96,2.03 -1.54,0.48 -3.25,0.72 -5.12,0.72 z m -7.53,-17.88 h 14.19 c 0,-1.43 -0.17,-2.62 -0.5,-3.57 -0.29,-0.99 -0.73,-1.8 -1.32,-2.42 -0.59,-0.62 -1.28,-1.06 -2.09,-1.32 -0.81,-0.29 -1.72,-0.44 -2.75,-0.44 -1.54,0 -2.86,0.27 -3.96,0.82 -1.06,0.55 -1.89,1.42 -2.47,2.59 -0.59,1.14 -0.96,2.58 -1.1,4.34 z m 35.07,17.22 v -28.93 h 4.73 l 0.49,4.12 h 0.39 c 0.66,-1.06 1.41,-1.94 2.25,-2.64 0.88,-0.69 1.86,-1.22 2.92,-1.59 1.1,-0.37 2.27,-0.55 3.52,-0.55 1.8,0 3.35,0.37 4.67,1.1 1.36,0.73 2.39,1.96 3.08,3.68 h 0.39 c 0.66,-1.02 1.43,-1.88 2.31,-2.58 0.88,-0.73 1.87,-1.28 2.97,-1.65 1.14,-0.37 2.35,-0.55 3.63,-0.55 1.72,0 3.24,0.31 4.56,0.93 1.32,0.59 2.37,1.6 3.14,3.03 0.77,1.39 1.15,3.26 1.15,5.61 v 20.02 h -5.72 v -18.98 c 0,-1.1 -0.12,-1.99 -0.38,-2.69 -0.26,-0.73 -0.61,-1.3 -1.05,-1.71 -0.44,-0.44 -0.97,-0.75 -1.59,-0.93 -0.62,-0.18 -1.3,-0.28 -2.04,-0.28 -1.21,0 -2.29,0.33 -3.24,0.99 -0.95,0.63 -1.72,1.51 -2.31,2.64 -0.59,1.14 -0.88,2.48 -0.88,4.02 v 16.94 h -5.72 v -18.98 c 0,-1.1 -0.13,-1.99 -0.39,-2.69 -0.25,-0.73 -0.6,-1.3 -1.04,-1.71 -0.44,-0.44 -0.97,-0.75 -1.6,-0.93 -0.62,-0.18 -1.28,-0.28 -1.98,-0.28 -1.21,0 -2.31,0.33 -3.3,0.99 -0.99,0.63 -1.77,1.51 -2.36,2.64 -0.59,1.14 -0.88,2.48 -0.88,4.02 v 16.94 z"
     fill="#ffffff"
     id="path262" />
  <path
     d="m 715.27046,235.09292 -3.67,2.61 1.53,0.17 c -0.35,2.59 0.21,5.93 -1.22,7.61 -3.86,4.34 -8.08,8.35 -12.61,11.98 -0.83,0.72 -2.81,0.12 -4.26,0.12 0.48,-5.39 0.27,-5.48 -8.23,-4.38 0.22,1.21 0.43,2.45 0.62,3.68 l -0.75,0.33 -4.92,-7.53 c -1.03,-1.56 -1.93,-3.14 -3.05,-4.69 -0.68,-0.98 -1.93,-1.93 -1.93,-2.91 -0.14,-5.93 -1.11,-12.12 0.3,-17.7 2.34,-9.29 6.28,-18.15 9.46,-27.22 0.59,-2.18 1.06,-4.39 1.41,-6.62 l 1.53,4.82 c 0.89,-5.6 1.68,-10.62 2.58,-16.29 l -6.98,6.41 c -1.68,-1.51 -4.15,0 -7.38,2.26 -3.86,2.6 -4.01,8.61 -9.5,9.36 -0.34,0 -0.75,1.18 -0.81,1.93 -0.63,7.03 -5.79,9.05 -11.46,9.65 -6.93,0.79 -11.93,-3.09 -15.95,-8.14 -0.97,-1.22 -0.19,-3.69 -0.75,-5.41 -1.05,-3.28 -2.69,-6.39 -3.67,-9.65 -1.55,-5.19 -2.86,-10.47 -4.05,-15.77 -0.24,-1.03 0.69,-2.24 0.84,-3.42 0.16,-1.18 0.7,-3.38 0,-4.21 -4.01,-4.86 -0.09,-6.64 3.46,-9.05 l -3.73,-1.66 v -7.55 l -1.71,-0.16 c -0.19,1.22 -0.53,2.4 -0.99,3.54 -5.93,10.31 -5.46,23.07 -12.78,32.93 -1.41,1.93 -0.56,5.33 -1.5,7.72 -1.82,5.13 -4.09,10.08 -6.78,14.81 -1.7,2.84 0.15,5.79 -2.49,9.01 -3.44,4.08 -4.71,10.04 -6.78,15.24 -1,2.5 -1.29,5.38 -2.64,7.72 -3.15,5.32 -6.72,10.4 -10.12,15.59 l -2.18,3.33 c -2.04,-3.17 -3.86,-1.34 -6.25,0.73 -1.54,1 -3.23,1.75 -5,2.24 -0.51,-2.05 -1.93,-4.38 -1.34,-6.06 1.68,-4.38 3.62,-8.65 5.8,-12.8 l -5.04,-4.09 -3.63,6.13 -1.24,-0.63 c 0.37,-2.42 -2.31,-5.7 2.44,-6.91 0.5,-0.14 1.25,-1.2 1.13,-1.64 -1.33,-5.49 2.42,-9.29 4.43,-13.63 0.81,-1.76 1.93,-3.38 2.93,-5.22 l -1.76,-0.3 c 0.36,-2.62 0.92,-5.2 1.7,-7.73 1.07,-2.15 2.37,-4.18 3.86,-6.06 0.5,-0.77 1.64,-1.41 1.68,-2.16 0.54,-9.88 4.42,-18.57 9.25,-27.03 0.91,-1.87 1.39,-3.93 1.39,-6.02 0.31,-6.52 4.42,-11.37 7.01,-16.93 1.81,-3.86 3.12,-7.99 4.69,-11.99 2.53,-6.37 5,-12.78 7.62,-19.13 2.24,-5.42 4.06,-11.16 7.18,-16.040001 2.73,-4.29 7.01,-7.59 10.74,-11.47 l 3.18,2.71 c 6.59,-6.2 15.78,-4.68 18.86,3.3 0.99,3.33 1.7,6.74 2.13,10.190001 0.1,1.25 0.39,2.48 0.87,3.65 1.75,3.14 4.11,5.36 1.75,10.04 -1.48,2.99 1.43,7.95 1.68,12.06 0.39,6.62 -0.19,13.3 0.35,19.9 0.54,6.61 1.93,13.38 3.07,20.04 0.1,0.5 1.51,1.22 2.1,1.06 0.89,-0.19 2.15,-1 2.3,-1.73 1.31,-6.51 6.87,-9.13 11.29,-12.84 1.19,-0.89 2.31,-1.86 3.36,-2.9 6.57,-7.18 13.71,-13.95 19.44,-21.75 5.48,-7.17 11.91,-13.55 19.12,-18.98 1.1,-0.87 0.59,-3.86 0.65,-5.93 0.18,-6.620001 9.87,-16.890001 16.37,-16.480001 1.59,0.11 3.17,3.3 4.33,5.33 1,1.71 0.96,4.13 2.12,5.650001 2.3,3.05 5.48,5.64 1.37,9.5 3.36,3.69 0.14,7.14 -0.5,10.66 -0.42,1.77 -0.51,3.61 -0.27,5.42 0.27,1.66 -1.55,3.67 -1.93,5.54 -0.39,3.18 -0.99,6.33 -1.8,9.42 -1.81,5.58 -4.17,10.99 -6.08,16.55 -1.06,3.12 -1.48,6.48 -2.51,9.65 -1.02,3.16 -2.41,5.56 -3.43,8.4 -1.03,2.83 -1.57,5.34 -2.44,7.99 -2.99,8.9 -6.21,17.72 -8.95,26.7 -1.02,4.17 -1.78,8.41 -2.28,12.68 -0.14,0.73 -0.43,1.45 -0.56,2.18 -0.5,3.13 -0.97,6.29 -1.45,9.44 z"
     fill="#ffffff"
     id="path264" />
  <path
     d="m 360.29146,188.35292 c -2.282,0.23 -4.545,0.61 -6.776,1.14 -8.861,2.74 -17.645,5.79 -27.027,6.53 -4.209,0.33 -8.378,0.89 -12.568,1.45 -0.753,0.09 -1.93,0.44 -2.142,1.02 -1.698,2.97 -3.132,6.08 -4.286,9.3 -2.703,8.9 -4.575,18.09 -7.722,26.78 -1.544,4.19 -5.444,7.49 -7.992,11.37 -0.464,0.69 -4.19,1.93 -0.348,3.44 -0.869,0.54 -1.757,1.6 -2.587,1.52 -4.324,-0.31 -8.648,-1.18 -12.973,-1.35 -5.212,-0.23 -2.895,-2.53 -1.196,-5.29 l -4.132,1.24 c -5.656,0.36 3.166,-6.45 -4.112,-5.35 0,-1.35 0.135,-2.84 0.213,-4.65 l -1.931,-1.01 c -0.292,-2.18 -0.453,-4.38 -0.482,-6.58 0.135,-1.47 0.507,-2.91 1.1,-4.27 0.502,-1.25 2.027,-2.45 1.93,-3.51 -0.849,-6.33 3.359,-11.2 4.556,-16.91 0.753,-3.61 1.024,-6.95 5.367,-9.46 2.703,-1.54 2.857,-7.43 4.286,-11.31 0.444,-1.18 1.486,-2.15 1.93,-3.3 0.869,-1.93 1.545,-4.02 2.317,-6.05 l -1.332,-0.48 3.706,-2.59 -1.93,-4.94 c 5.502,-0.69 6.853,-5.52 9.344,-8.94 0.559,-0.75 -0.618,-2.79 -1.101,-4.63 l 4.691,0.33 -1.679,-1.8 8.417,-11.98 -0.927,-1.49 c -4.189,1.29 -8.687,1.93 -12.51,4.05 -5.328,2.84 -10,0.97 -14.922,-0.52 -3.34,-1 -3.63,-2.26 -3.765,-6.31 -0.231,-6.16 2.877,-8.88 6.371,-11.87 4.903,-4.17 10.425,-7.63 15.328,-11.8 1.718,-1.48 2.413,-4.17 3.436,-6.04 2.567,-0.43 5.101,-1.03 7.587,-1.79 4.923,-1.94 9.653,-4.040001 14.498,-6.070001 l -2.374,-1.33 4.633,-1.16 c 3.801,-0.78 7.552,-1.79 11.235,-3.01 3.591,-1.39 8.012,-2.66 10.097,-5.46 5.791,-7.72 9.652,-0.81 14.189,1 2.215,0.74 4.488,1.29 6.795,1.64 5.328,1.16 10.888,1.68 15.946,3.56 6.293,2.31 10.83,7.27 15.444,12.200001 3.34,3.59 7.722,6.23 10.811,9.65 0.888,2.04 2.567,4.09 2.528,6.12 -0.154,7.04 7.587,12.7 3.417,20.46 -0.637,1.16 0.406,3.13 0.271,4.67 -0.268,3.46 -1.267,6.82 -2.931,9.86 -1.664,3.04 -3.955,5.7 -6.722,7.79 -5.077,4.01 -10.637,7.43 -15.444,11.71 -4.807,4.29 -11.119,6.57 -17.258,8.85 -3.07,1.13 -5.058,5.09 -9.344,3.3 -0.424,-0.04 -1.718,2 -1.93,2.27 z m -32.973,-20.71 c 13.938,-3.67 28.397,-6.25 40.173,-16.23 0,0.75 0.174,1.5 0.251,2.23 4.17,-2.7 8.437,-5.25 12.471,-8.12 4.035,-2.88 4.846,-9.33 1.429,-12.57 -1.931,-1.79 -4.672,-2.66 -6.795,-4.28 -5.908,-4.52 -12.838,-4.5 -19.691,-4.83 -4.344,-0.19 -5.792,2.16 -3.861,6.62 -4.305,-1.81 -3.861,1.93 -4.807,3.86 -3.128,6.24 -5.888,12.7 -9.402,18.71 -2.239,3.86 -6.37,6.41 -6.776,11.44 -0.135,1.18 -1.969,2.15 -2.992,3.17 z"
     fill="#ffffff"
     id="path266" />
  <path
     d="m 230.06046,212.10292 -12.568,8.69 10.927,-2.96 -29.228,19.92 c -0.096,-0.48 -0.444,-2.18 -1.1,-5.34 -0.536,1.13 -1.001,2.3 -1.39,3.49 -0.064,0.64 -0.064,1.29 0,1.93 -3.629,3.86 -9.652,2.05 -12.587,6.72 -0.617,0.96 -3.204,0.79 -4.884,0.95 -5.328,0.46 -10.656,0.98 -16.004,1.19 -4.305,0.16 -8.687,-0.58 -12.664,1.84 -0.617,0.38 -1.563,0.21 -2.355,0.31 l -0.193,-2.94 c -10.956,-3.34 -21.158,-8.79 -30.038,-16.02 0,-0.18 0.289,-1.6 0.56,-3.05 -5.56,-2.84 -8.958,-6.82 -8.746,-13.52 0,-2.52 -1.795,-5.07 -2.586,-7.72 -0.089,-0.65 -0.009,-1.31 0.231,-1.93 -1.221,-1.85 -2.225,-3.84 -2.992,-5.92 -0.927,-3.69 0.541,-7.73 -1.93,-11.37 -0.946,-1.39 -0.502,-3.98 -0.213,-5.95 0.888,-6.18 1.178,-12.61 3.263,-18.4 2.394,-6.7 2.258,-14.55 9.15,-19.65 2.819,-2.08 3.61,-6.89 5.386,-10.44 0.379,-0.77 0.874,-1.48 1.467,-2.11 4.363,-4.75 9.305,-9.07 12.993,-14.28 4.189,-5.91 9.98,-8.8 16.254,-11.35 0.491,-0.17 0.902,-0.52 1.159,-0.97 2.085,-5.210001 6.042,-6.250001 11.447,-4.770001 l -0.347,-3.53 4.537,0.39 c 2.548,-1.76 4.169,-3.67 6.119,-4.08 5.521,-1.14 11.197,-1.64 16.796,-2.45 5.212,-0.75 10.926,-0.46 15.443,-2.62 7.317,-3.48 13.07,0 19.305,2.04 5.657,1.84 10.058,11.39 9.518,16.910001 -0.348,3.59 1.023,7.36 2.239,10.99 -0.772,2.33 -5.347,4.03 -0.849,8.13 h -5.406 l 4.788,1.71 c -7.626,11.72 -17.22,20.99 -29.961,26.45 -2.993,0.17 -5.985,0.54 -8.977,0.42 -0.888,0 -2.529,-1.93 -2.452,-2.06 1.699,-2.55 -0.579,-3.07 -1.93,-4.36 -2.664,-2.71 -5.039,-5.68 -7.085,-8.05 1.737,-2.69 2.529,-4.95 4.112,-6.2 6.004,-4.77 12.258,-9.21 18.417,-13.74 2.915,-2.17 5,-4.62 3.745,-8.65 -1.352,-4.44 -5.792,-3.57 -8.224,-3.44 -5.29,0.25 -11.178,1.06 -15.56,3.73 -4.015,2.43 -9.498,1.35 -12.567,6.19 -1.255,1.93 -5.155,2.13 -7.722,3.25 -0.898,0.47 -1.719,1.07 -2.433,1.79 -4.739,4.36 -8.95,9.26 -12.548,14.6 -2.741,3.86 -4.942,8.14 -9.459,10.5 -0.579,0.29 0,2.91 0.212,5.27 l -3.069,1.45 c -0.773,3.72 -1.468,7.43 -2.356,11.1 -0.328,1.37 -1.756,2.74 -1.563,3.95 0.54,3.57 0.559,6.24 -2.742,9.08 -1.235,1.08 0.464,6.21 1.583,9.2 1.62,4.73 3.756,9.26 6.371,13.52 2.115,3.15 4.912,5.79 8.185,7.72 4.168,2.15 8.515,3.94 12.992,5.35 3.36,1.25 6.796,3.1 10.232,3.18 5.676,0 11.371,-1.14 17.066,-1.6 3.745,-0.31 7.528,-0.21 11.293,-0.37 0.924,0.02 1.841,-0.16 2.683,-0.54 8.166,-4.69 16.506,-5.42 26.255,-1.58 z"
     fill="#ffffff"
     id="path268" />
  <path
     d="m 546.20046,213.91292 -12.88,8.81 10.68,-2.63 -29.15,19.67 -0.51,-3.65 -1.21,-0.13 c -0.31,1.56 -0.62,3.11 -0.79,4.03 -3.61,4.06 -9.79,1.78 -12.69,6.8 -0.62,1.1 -3.43,1.14 -5.27,1.27 -5.19,0.39 -10.4,0.75 -15.635,0.79 -4.324,0 -8.648,-0.38 -12.644,1.93 -0.618,0.35 -1.545,0.12 -2.336,0.16 v -2.8 c -11.04,-3.27 -21.3,-8.74 -30.154,-16.1 l 0.617,-2.66 -1.1,1.13 c -1.525,-2.1 -3.089,-4.17 -4.556,-6.31 -0.942,-1.25 -1.714,-2.62 -2.297,-4.07 -1.449,-3.53 -2.448,-7.23 -2.973,-11 -0.29,-5.02 -2.992,-9.21 -3.861,-14.1 -1.566,-8.01 -1.228,-16.27 0.984,-24.13 1.39,-4.98 1.371,-10.48 3.417,-15.13 2.491,-5.7 6.487,-10.72 9.788,-16.04 3.61,-5.8 7.143,-11.59 10.791,-17.38 0.502,-0.81 1.583,-1.23 2.298,-1.93 2.163,-2.38 4.471,-4.63 6.911,-6.74 3.475,-2.56 7.336,-4.57 10.965,-6.95 1.235,-0.81 2.123,-2.16 3.417,-2.85 3.282,-1.8 6.699,-3.34 10.849,-5.370001 -0.096,-3.86 3.629,-0.46 5.349,-1.62 1.72,-1.16 3.09,-3.03 4.86,-3.42 9.56,-2.04 19.17,-3.86 28.83,-5.5 7.95,-1.37 15.75,-1.45 23.35,2.3 4.91,2.41 10.29,11.290001 9.25,17.200001 -0.46,2.53 0.5,5.31 0.95,8.86 l 2.18,1.52 c -1.26,2.67 -6.16,4.52 -1.7,8.63 h -5.58 l 5,1.61 c -7.72,11.75 -17.37,20.98 -30.1,26.56 -2.99,0.19 -5.98,0.56 -8.95,0.48 -0.91,0 -1.76,-1.25 -2.65,-1.93 2.47,-3.01 -0.81,-3.59 -2.08,-5.06 -2.38,-2.72 -4.65,-5.54 -6.8,-8.11 1.67,-2.18 3.51,-4.23 5.5,-6.11 5.8,-4.66 12.01,-8.96 17.86,-13.65 2.57,-2.05 4.62,-4.62 3.17,-8.48 -1.62,-4.28 -5.79,-3.28 -8.36,-3.2 -4.9,-0.02 -9.73,1.11 -14.11,3.28 -4.48,2.53 -10.02,2.08 -13.98,6.64 -2.97,3.44 -8.44,4.63 -12.549,7.24 -1.712,1.35 -3.249,2.92 -4.575,4.65 -2.741,3.46 -4.961,6.14 -7.085,8.92 -1.39,1.81 -2.587,3.86 -3.957,5.6 -0.614,1.01 -1.453,1.87 -2.452,2.51 -3.764,1.7 -2.201,3.69 -1.93,5.4 -0.516,2.06 -1.161,4.07 -1.931,6.05 -0.54,1.15 -2.567,2.1 -2.49,3.01 0.386,4.13 -4.17,7.95 -0.792,12.29 0.251,0.31 -0.83,2.11 -1.66,2.73 -4.865,3.53 -2.22,7.72 -0.811,11.44 1.61,4.9 3.884,9.55 6.757,13.83 2.843,3.6 6.382,6.59 10.405,8.8 3.726,2.1 9.151,1.93 12.143,4.52 4.147,3.74 8.537,3.16 12.857,2.99 6.74,-0.27 13.51,-1.93 20.17,-2.22 7.92,-0.29 14.79,-5.18 22.73,-4.67 3.55,0.5 7.07,1.27 10.52,2.29 z"
     fill="#ffffff"
     id="path270" />
  <path
     d="m 836.33046,304.64292 c -11.35,0.31 -22.66,0.81 -34.02,0.85 -108.87,0.38 -217.77,0.69 -326.673,0.93 -3.861,0 -9.382,1.22 -9.169,-4.79 0.193,-5.46 5.521,-4.19 9.189,-4.13 65.403,0.93 130.813,1.89 196.213,2.9 53.66,0.87 107.3,1.84 160.95,2.91 1.17,0 2.33,0.21 3.51,0.33 z"
     fill="#ffffff"
     id="path272" />
  <path
     d="m 95.775455,301.13292 c 3.861,-0.23 7.857005,-0.58 11.776005,-0.64 22.085,-0.34 44.17,-0.58 66.235,-0.92 l 107.818,-1.57 c 1.922,-0.33 3.893,-0.27 5.791,0.18 2.452,1.08 6.139,2.8 6.39,4.65 0.579,3.98 -3.359,4.65 -6.583,4.94 -1.928,0.13 -3.863,0.13 -5.791,0 l -116.138,-2.95 c -21.39,-0.52 -42.761,-0.91 -64.131,-1.41 -1.776005,0 -3.533005,-0.39 -5.290005,-0.58 z"
     fill="#ffffff"
     id="path274" />
  <path
     d="m 379.94346,405.14292 c -0.27,-69.88 -0.405,-139.76 0.193,-209.64 l 2.722,-0.23 c 0.508,2.37 0.856,4.78 1.043,7.2 0.173,35.55 0.386,71.13 0.328,106.69 0,29.96 -0.444,59.85 -0.753,89.88 -0.167,2.11 -0.477,4.21 -0.927,6.28 z"
     fill="#ffffff"
     id="path276" />
  <path
     d="m 392.10546,369.80292 c -3.513,-4.87 -3.648,-135.62 -0.386,-140.77 3.475,5.56 4.093,135.77 0.386,140.77 z"
     fill="#ffffff"
     id="path278" />
  <path
     d="m 338.16746,242.48292 c 2.761,10.81 2.24,116.95 -1.428,121.24 -0.966,-1.78 -1.649,-3.69 -2.027,-5.68 -0.142,-37.13 -0.142,-74.26 0,-111.41 0.347,-1.73 1.001,-3.38 1.93,-4.88 z"
     fill="#ffffff"
     id="path280" />
  <path
     d="m 350.36846,297.69292 c 0,15.58 0.096,31.18 -0.116,46.78 0,1.76 -1.699,3.47 -2.606,5.21 -0.83,-1.68 -2.375,-3.36 -2.394,-5.06 -0.27,-30.88 -0.367,-61.67 -0.502,-92.5 -0.135,-0.87 -0.102,-1.75 0.097,-2.61 0.668,-1.25 1.429,-2.44 2.278,-3.57 0.811,1.12 2.22,2.2 2.336,3.4 0.386,3.99 0.366,8.05 0.366,12.08 0,12.09 0,24.17 0,36.27 z"
     fill="#ffffff"
     id="path282" />
  <path
     d="m 367.33746,294.99292 c 0,-13.99 0,-27.99 0,-41.99 0.369,-1.83 1.054,-3.59 2.027,-5.19 0.946,1.64 2.703,3.26 2.722,4.89 0.206,28.88 0.257,57.75 0.154,86.61 0,1.28 -1.563,2.57 -2.413,3.87 -0.791,-1.55 -2.278,-3.07 -2.297,-4.62 -0.174,-14.51 -0.097,-28.95 -0.097,-43.57 z"
     fill="#ffffff"
     id="path284" />
  <path
     d="m 355.69646,296.40292 v -39.92 c -0.158,-1.22 -0.099,-2.45 0.174,-3.65 0.618,-1.1 1.406,-2.09 2.336,-2.93 0.928,0.89 1.727,1.9 2.374,3.01 0.273,1.19 0.332,2.43 0.174,3.65 0,26.79 0,53.58 0,80.36 0,0.87 0.29,1.93 0,2.59 -0.898,1.27 -1.892,2.48 -2.973,3.61 -0.734,-1.22 -1.93,-2.42 -2.066,-3.65 -0.231,-5.08 0,-10.15 0,-15.23 v -27.84 z"
     fill="#ffffff"
     id="path286" />
  <path
     d="m 423.74646,256.27292 c 0.623,2.01 1.043,4.08 1.255,6.17 0.103,24.71 0.103,49.42 0,74.13 0,1.53 -1.487,3.03 -2.278,4.54 -0.927,-1.45 -2.645,-2.9 -2.664,-4.36 -0.09,-24.89 -0.039,-49.78 0.154,-74.65 0.242,-1.99 0.735,-3.93 1.467,-5.79 z"
     fill="#ffffff"
     id="path288" />
  <path
     d="m 435.19446,269.70292 c 0.623,1.81 1.05,3.68 1.274,5.58 0.231,17.38 0.386,34.75 0.347,52.01 0,1.52 -1.428,3.05 -2.181,4.57 -0.888,-1.46 -2.529,-2.91 -2.568,-4.38 -0.244,-17.68 -0.328,-35.36 -0.251,-53.05 0.296,-1.68 0.87,-3.31 1.699,-4.8 z"
     fill="#ffffff"
     id="path290" />
  <path
     d="m 443.37946,331.92292 c -0.67,-1.94 -1.123,-3.96 -1.351,-6 -0.136,-17.38 -0.097,-34.62 -0.116,-51.93 -0.13,-1.04 -0.052,-2.1 0.231,-3.11 0.597,-0.95 1.34,-1.81 2.201,-2.53 0.787,0.75 1.44,1.62 1.931,2.59 0.321,1.36 0.438,2.77 0.347,4.17 0,17.11 0,34.24 0,51.37 -0.162,1.77 -0.485,3.53 -0.965,5.25 z"
     fill="#ffffff"
     id="path292" />
  <path
     d="m 326.10246,328.89292 c -0.496,-1.24 -0.833,-2.54 -1.004,-3.86 -0.406,-17.7 -0.792,-35.4 -0.985,-53.11 0,-1.39 1.274,-2.82 1.931,-4.22 0.965,1.4 2.741,2.79 2.76,4.22 0.29,17.88 0.367,35.75 0.367,53.63 -0.25,1.22 -0.729,2.38 -1.409,3.42 z"
     fill="#ffffff"
     id="path294" />
  <path
     d="m 411.48746,270.65292 c 0.47,1.54 0.793,3.13 0.965,4.73 0.387,16.64 0.695,33.26 1.024,49.9 0.145,0.68 0.145,1.39 0,2.07 -0.676,1.42 -1.564,2.72 -2.356,4.07 -0.907,-1.47 -2.528,-2.93 -2.567,-4.42 -0.174,-9.27 0,-18.53 0,-27.8 0,-7.53 0,-15.06 0,-22.59 0.186,-1.95 0.522,-3.89 1.004,-5.79 z"
     fill="#ffffff"
     id="path296" />
  <path
     d="m 454.90446,323.60292 c -1.1,-2.93 -2.317,-4.69 -2.336,-6.47 -0.116,-9.98 0,-19.96 0.135,-29.94 -0.064,-0.87 0.068,-1.75 0.386,-2.56 0.444,-0.85 1.603,-2.15 1.931,-1.93 0.946,0.38 2.316,1.42 2.336,2.2 0.096,11.91 0,23.8 -0.116,35.69 0.038,0.46 -0.753,0.98 -2.336,3.01 z"
     fill="#ffffff"
     id="path298" />
  <path
     d="m 402.81946,278.08292 c 0.582,1.5 0.978,3.07 1.178,4.67 0,11.59 0,23.17 -0.212,34.65 0,1.28 -1.178,2.55 -1.796,3.87 -0.926,-1.22 -2.664,-2.46 -2.664,-3.67 0,-12.09 0.309,-24.15 0.618,-36.24 0.243,-1.13 0.688,-2.21 1.313,-3.18 z"
     fill="#ffffff"
     id="path300" />
  <path
     d="m 319.51946,296.46292 c 0,5.6 0.154,11.2 -0.097,16.76 0,1.35 -1.506,2.62 -2.316,3.86 -0.83,-1.26 -2.394,-2.49 -2.433,-3.77 -0.283,-11.35 -0.379,-22.71 -0.289,-34.07 0,-1.35 1.467,-2.68 2.239,-4.04 0.811,1.3 2.259,2.57 2.336,3.87 0.251,5.79 0,11.58 0,17.37 z"
     fill="#ffffff"
     id="path302" />
  <path
     d="m 304.13346,299.72292 c 0,-3.3 -0.213,-6.64 0.096,-9.9 0.116,-1.29 1.41,-2.45 2.162,-3.69 0.792,1.12 2.22,2.2 2.259,3.32 0.232,6.6 0.29,13.23 0,19.83 0,1.27 -1.737,2.47 -2.664,3.7 -0.868,-1.16 -1.521,-2.47 -1.93,-3.86 -0.29,-3.11 -0.097,-6.25 -0.097,-9.4 z"
     fill="#ffffff"
     id="path304" />
  <path
     d="m 846.668,1906.86 c 1.023,-1.02 2.857,-1.93 2.934,-3.09 0.406,-5.04 4.537,-7.72 6.776,-11.45 3.514,-6 6.274,-12.47 9.402,-18.7 1.004,-1.93 0.502,-5.79 4.807,-3.86 -1.931,-4.46 -0.425,-6.82 3.861,-6.62 6.853,0.32 13.783,0.31 19.691,4.82 2.123,1.62 4.884,2.49 6.795,4.29 3.417,3.24 2.625,9.65 -1.429,12.57 -4.054,2.91 -8.301,5.42 -12.471,8.12 0,-0.73 -0.173,-1.48 -0.251,-2.24 -11.718,9.91 -26.177,12.49 -40.115,16.16 z"
     fill="#ffffff"
     id="path306"
     style="display:none" />
</svg>
